# xmcd CD database file
#
# Track frame offsets:
#	150
#	20202
#	50827
#	79612
#	103780
#	122859
#	156232
#	187773
#	235164
#	274144
#
# Disc length: 3815 seconds
#
# Revision: 1
# Processed by: cddbd v1.5.2PL0 Copyright (c) Steve Scherf et al.
# Submitted via: CDex 1.51
#
DISCID=860ee50a
DTITLE=Nawal - Caresse de l'âme
DYEAR=2011
DGENRE=Jazz
TTITLE0=Aux Hommes Dignes
TTITLE1=Prière
TTITLE2=Zim Spirit
TTITLE3=Mama Baraka
TTITLE4=Shalom 'Aleikoum
TTITLE5=Mantra pour Quatre Chakras
TTITLE6=Tsioro
TTITLE7=Origine
TTITLE8=Souffle de la Mer
TTITLE9=Mystic Baraka
EXTD=YEAR: 2011
EXTT0=
EXTT1=
EXTT2=
EXTT3=
EXTT4=
EXTT5=
EXTT6=
EXTT7=
EXTT8=
EXTT9=
PLAYORDER=
